ffmpeg started on 2026-04-01 at 13:27:20
Report written to "D:\Convert\FFMetrics\reports\ssim_report-6.txt"
Log level: 32
Command line:
ffmpeg -hide_banner -nostdin -r 24000/1001 -i "F:\\Convert\\files\\[DC] Make Heroine ga Oosugiru - 07_Telegram_HEVC(304).mkv" -r 24000/1001 -i "F:\\Convert\\files\\[DC] Make Heroine ga Oosugiru - 07_Telegram.mp4" -lavfi "[0:v]settb=AVTB,setpts=PTS-STARTPTS,format=pix_fmts=yuv420p10le,fps=24000/1001,scale=1920:1080:flags=lanczos:param0=3:out_range=limited:out_color_matrix=bt709:out_chroma_loc=left,setsar=1/1,setdar=(1920/1080)*(1/1),colorspace=format=yuv420p10:range=tv:primaries=bt709:trc=bt709:space=bt709:fast=0[main];[1:v]settb=AVTB,setpts=PTS-STARTPTS,format=pix_fmts=yuv420p,fps=24000/1001,scale=1920:1080:flags=lanczos:param0=3:out_range=limited:out_color_matrix=bt709:out_chroma_loc=left,setsar=1/1,setdar=(1920/1080)*(1/1),colorspace=format=yuv420p:range=tv:primaries=bt709:trc=bt709:space=bt709:fast=0[ref];[main][ref]ssim=eof_action=endall:stats_file='D\\:/Convert/FFMetrics/logs/ssim_logfile-6.txt'" -f null -
Input #0, matroska,webm, from 'F:\Convert\files\[DC] Make Heroine ga Oosugiru - 07_Telegram_HEVC(304).mkv':
  Metadata:
    COMPATIBLE_BRANDS: isomiso2avc1mp41
    MAJOR_BRAND     : isom
    MINOR_VERSION   : 512
    ENCODER         : Lavf61.7.100
  Duration: 00:24:06.79, start: -0.021000, bitrate: 1185 kb/s
  Stream #0:0: Video: hevc (Main 10), yuv420p10le(tv, bt709, progressive), 1920x1080 [SAR 1:1 DAR 16:9], 23.98 fps, 23.98 tbr, 1k tbn (default)
      Metadata:
        HANDLER_NAME    : VideoHandler
        VENDOR_ID       : [0][0][0][0]
        ENCODER         : Lavc61.19.100 libx265
        BPS             : 988400
        DURATION        : 00:24:06.569708333
        NUMBER_OF_FRAMES: 34683
        NUMBER_OF_BYTES : 178723629
        _STATISTICS_WRITING_APP: mkvpropedit v94.0 ('Initiate') 64-bit
        _STATISTICS_WRITING_DATE_UTC: 2026-03-31 09:55:27
        _STATISTICS_TAGS: BPS DURATION NUMBER_OF_FRAMES NUMBER_OF_BYTES
  Stream #0:1: Audio: aac (LC), 48000 Hz, stereo, fltp (default)
      Metadata:
        HANDLER_NAME    : SoundHandler
        VENDOR_ID       : [0][0][0][0]
        ENCODER         : Lavc61.19.100 aac
        BPS             : 193194
        DURATION        : 00:24:06.784000000
        NUMBER_OF_FRAMES: 67819
        NUMBER_OF_BYTES : 34938755
        _STATISTICS_WRITING_APP: mkvpropedit v94.0 ('Initiate') 64-bit
        _STATISTICS_WRITING_DATE_UTC: 2026-03-31 09:55:27
        _STATISTICS_TAGS: BPS DURATION NUMBER_OF_FRAMES NUMBER_OF_BYTES
Input #1, mov,mp4,m4a,3gp,3g2,mj2, from 'F:\Convert\files\[DC] Make Heroine ga Oosugiru - 07_Telegram.mp4':
  Metadata:
    major_brand     : isom
    minor_version   : 512
    compatible_brands: isomiso2avc1mp41
    encoder         : Lavf60.16.100
  Duration: 00:24:06.74, start: 0.000000, bitrate: 3764 kb/s
  Stream #1:0[0x1](und): Video: h264 (High) (avc1 / 0x31637661), yuv420p(tv, bt709, progressive), 1920x1080 [SAR 1:1 DAR 16:9], 3616 kb/s, 23.98 fps, 23.98 tbr, 24k tbn (default)
      Metadata:
        handler_name    : VideoHandler
        vendor_id       : [0][0][0][0]
        encoder         : Lavc60.31.102 h264_qsv
  Stream #1:1[0x2](und): Audio: aac (HE-AACv2) (mp4a / 0x6134706D), 48000 Hz, stereo, fltp, 144 kb/s (default)
      Metadata:
        handler_name    : SoundHandler
        vendor_id       : [0][0][0][0]
Stream mapping:
  Stream #0:0 (hevc) -> settb:default
  Stream #1:0 (h264) -> settb:default
  ssim:default -> Stream #0:0 (wrapped_avframe)
  Stream #0:1 -> #0:1 (aac (native) -> pcm_s16le (native))
Output #0, null, to 'pipe:':
  Metadata:
    COMPATIBLE_BRANDS: isomiso2avc1mp41
    MAJOR_BRAND     : isom
    MINOR_VERSION   : 512
    encoder         : Lavf61.7.100
  Stream #0:0: Video: wrapped_avframe, yuv420p10le(tv, bt709, progressive), 1920x1080 [SAR 1:1 DAR 16:9], q=2-31, 200 kb/s, 23.98 fps, 23.98 tbn
      Metadata:
        encoder         : Lavc61.19.100 wrapped_avframe
  Stream #0:1: Audio: pcm_s16le, 48000 Hz, stereo, s16, 1536 kb/s (default)
      Metadata:
        HANDLER_NAME    : SoundHandler
        VENDOR_ID       : [0][0][0][0]
        _STATISTICS_TAGS: BPS DURATION NUMBER_OF_FRAMES NUMBER_OF_BYTES
        BPS             : 193194
        DURATION        : 00:24:06.784000000
        NUMBER_OF_FRAMES: 67819
        NUMBER_OF_BYTES : 34938755
        _STATISTICS_WRITING_APP: mkvpropedit v94.0 ('Initiate') 64-bit
        _STATISTICS_WRITING_DATE_UTC: 2026-03-31 09:55:27
        encoder         : Lavc61.19.100 pcm_s16le
frame=  120 fps=0.0 q=-0.0 size=N/A time=00:00:05.00 bitrate=N/A speed=9.62x    frame=  297 fps=285 q=-0.0 size=N/A time=00:00:12.38 bitrate=N/A speed=11.9x    frame=  483 fps=311 q=-0.0 size=N/A time=00:00:20.14 bitrate=N/A speed=  13x    frame=  664 fps=322 q=-0.0 size=N/A time=00:00:27.69 bitrate=N/A speed=13.4x    frame=  843 fps=326 q=-0.0 size=N/A time=00:00:35.16 bitrate=N/A speed=13.6x    frame=  985 fps=318 q=-0.0 size=N/A time=00:00:41.08 bitrate=N/A speed=13.3x    frame= 1135 fps=313 q=-0.0 size=N/A time=00:00:47.33 bitrate=N/A speed=13.1x    frame= 1290 fps=312 q=-0.0 size=N/A time=00:00:53.80 bitrate=N/A speed=  13x    frame= 1441 fps=310 q=-0.0 size=N/A time=00:01:00.10 bitrate=N/A speed=12.9x    frame= 1583 fps=306 q=-0.0 size=N/A time=00:01:06.02 bitrate=N/A speed=12.8x    frame= 1724 fps=304 q=-0.0 size=N/A time=00:01:11.90 bitrate=N/A speed=12.7x    frame= 1883 fps=304 q=-0.0 size=N/A time=00:01:18.53 bitrate=N/A speed=12.7x    frame= 2037 fps=304 q=-0.0 size=N/A time=00:01:24.95 bitrate=N/A speed=12.7x    frame= 2146 fps=297 q=-0.0 size=N/A time=00:01:29.50 bitrate=N/A speed=12.4x    frame= 2284 fps=295 q=-0.0 size=N/A time=00:01:35.26 bitrate=N/A speed=12.3x    frame= 2427 fps=294 q=-0.0 size=N/A time=00:01:41.22 bitrate=N/A speed=12.2x    frame= 2551 fps=291 q=-0.0 size=N/A time=00:01:46.39 bitrate=N/A speed=12.1x    frame= 2699 fps=291 q=-0.0 size=N/A time=00:01:52.57 bitrate=N/A speed=12.1x    frame= 2856 fps=291 q=-0.0 size=N/A time=00:01:59.11 bitrate=N/A speed=12.1x    frame= 3015 fps=292 q=-0.0 size=N/A time=00:02:05.75 bitrate=N/A speed=12.2x    frame= 3187 fps=294 q=-0.0 size=N/A time=00:02:12.92 bitrate=N/A speed=12.3x    frame= 3376 fps=297 q=-0.0 size=N/A time=00:02:20.80 bitrate=N/A speed=12.4x    frame= 3553 fps=299 q=-0.0 size=N/A time=00:02:28.18 bitrate=N/A speed=12.5x    frame= 3708 fps=299 q=-0.0 size=N/A time=00:02:34.65 bitrate=N/A speed=12.5x    frame= 3881 fps=301 q=-0.0 size=N/A time=00:02:41.87 bitrate=N/A speed=12.5x    frame= 4052 fps=302 q=-0.0 size=N/A time=00:02:49.00 bitrate=N/A speed=12.6x    frame= 4245 fps=305 q=-0.0 size=N/A time=00:02:57.05 bitrate=N/A speed=12.7x    frame= 4424 fps=306 q=-0.0 size=N/A time=00:03:04.51 bitrate=N/A speed=12.8x    frame= 4569 fps=305 q=-0.0 size=N/A time=00:03:10.56 bitrate=N/A speed=12.7x    frame= 4741 fps=306 q=-0.0 size=N/A time=00:03:17.73 bitrate=N/A speed=12.8x    frame= 4921 fps=308 q=-0.0 size=N/A time=00:03:25.24 bitrate=N/A speed=12.8x    frame= 5101 fps=309 q=-0.0 size=N/A time=00:03:32.75 bitrate=N/A speed=12.9x    frame= 5277 fps=310 q=-0.0 size=N/A time=00:03:40.09 bitrate=N/A speed=12.9x    frame= 5462 fps=311 q=-0.0 size=N/A time=00:03:47.81 bitrate=N/A speed=  13x    frame= 5640 fps=312 q=-0.0 size=N/A time=00:03:55.23 bitrate=N/A speed=  13x    frame= 5823 fps=314 q=-0.0 size=N/A time=00:04:02.86 bitrate=N/A speed=13.1x    frame= 6005 fps=315 q=-0.0 size=N/A time=00:04:10.45 bitrate=N/A speed=13.1x    frame= 6181 fps=315 q=-0.0 size=N/A time=00:04:17.79 bitrate=N/A speed=13.2x    frame= 6357 fps=316 q=-0.0 size=N/A time=00:04:25.13 bitrate=N/A speed=13.2x    frame= 6548 fps=317 q=-0.0 size=N/A time=00:04:33.10 bitrate=N/A speed=13.2x    frame= 6729 fps=318 q=-0.0 size=N/A time=00:04:40.65 bitrate=N/A speed=13.3x    frame= 6906 fps=319 q=-0.0 size=N/A time=00:04:48.03 bitrate=N/A speed=13.3x    frame= 7084 fps=319 q=-0.0 size=N/A time=00:04:55.46 bitrate=N/A speed=13.3x    frame= 7246 fps=319 q=-0.0 size=N/A time=00:05:02.21 bitrate=N/A speed=13.3x    frame= 7404 fps=319 q=-0.0 size=N/A time=00:05:08.80 bitrate=N/A speed=13.3x    frame= 7565 fps=319 q=-0.0 size=N/A time=00:05:15.52 bitrate=N/A speed=13.3x    frame= 7729 fps=319 q=-0.0 size=N/A time=00:05:22.36 bitrate=N/A speed=13.3x    frame= 7896 fps=319 q=-0.0 size=N/A time=00:05:29.32 bitrate=N/A speed=13.3x    frame= 8064 fps=319 q=-0.0 size=N/A time=00:05:36.33 bitrate=N/A speed=13.3x    frame= 8241 fps=320 q=-0.0 size=N/A time=00:05:43.71 bitrate=N/A speed=13.3x    frame= 8425 fps=320 q=-0.0 size=N/A time=00:05:51.39 bitrate=N/A speed=13.4x    frame= 8602 fps=321 q=-0.0 size=N/A time=00:05:58.77 bitrate=N/A speed=13.4x    frame= 8784 fps=321 q=-0.0 size=N/A time=00:06:06.36 bitrate=N/A speed=13.4x    frame= 8964 fps=322 q=-0.0 size=N/A time=00:06:13.87 bitrate=N/A speed=13.4x    frame= 9143 fps=322 q=-0.0 size=N/A time=00:06:21.33 bitrate=N/A speed=13.4x    frame= 9318 fps=323 q=-0.0 size=N/A time=00:06:28.63 bitrate=N/A speed=13.5x    frame= 9496 fps=323 q=-0.0 size=N/A time=00:06:36.06 bitrate=N/A speed=13.5x    frame= 9673 fps=323 q=-0.0 size=N/A time=00:06:43.44 bitrate=N/A speed=13.5x    frame= 9848 fps=324 q=-0.0 size=N/A time=00:06:50.74 bitrate=N/A speed=13.5x    frame=10021 fps=324 q=-0.0 size=N/A time=00:06:57.95 bitrate=N/A speed=13.5x    frame=10197 fps=324 q=-0.0 size=N/A time=00:07:05.29 bitrate=N/A speed=13.5x    frame=10379 fps=325 q=-0.0 size=N/A time=00:07:12.89 bitrate=N/A speed=13.5x    frame=10556 fps=325 q=-0.0 size=N/A time=00:07:20.27 bitrate=N/A speed=13.5x    frame=10733 fps=325 q=-0.0 size=N/A time=00:07:27.65 bitrate=N/A speed=13.6x    frame=10916 fps=326 q=-0.0 size=N/A time=00:07:35.28 bitrate=N/A speed=13.6x    frame=11092 fps=326 q=-0.0 size=N/A time=00:07:42.62 bitrate=N/A speed=13.6x    frame=11274 fps=326 q=-0.0 size=N/A time=00:07:50.21 bitrate=N/A speed=13.6x    frame=11451 fps=327 q=-0.0 size=N/A time=00:07:57.60 bitrate=N/A speed=13.6x    frame=11620 fps=327 q=-0.0 size=N/A time=00:08:04.65 bitrate=N/A speed=13.6x    frame=11798 fps=327 q=-0.0 size=N/A time=00:08:12.07 bitrate=N/A speed=13.6x    frame=11976 fps=327 q=-0.0 size=N/A time=00:08:19.49 bitrate=N/A speed=13.6x    frame=12151 fps=327 q=-0.0 size=N/A time=00:08:26.79 bitrate=N/A speed=13.7x    frame=12318 fps=327 q=-0.0 size=N/A time=00:08:33.76 bitrate=N/A speed=13.6x    frame=12503 fps=328 q=-0.0 size=N/A time=00:08:41.47 bitrate=N/A speed=13.7x    frame=12690 fps=328 q=-0.0 size=N/A time=00:08:49.27 bitrate=N/A speed=13.7x    frame=12867 fps=328 q=-0.0 size=N/A time=00:08:56.66 bitrate=N/A speed=13.7x    frame=13040 fps=328 q=-0.0 size=N/A time=00:09:03.87 bitrate=N/A speed=13.7x    frame=13207 fps=328 q=-0.0 size=N/A time=00:09:10.84 bitrate=N/A speed=13.7x    frame=13378 fps=328 q=-0.0 size=N/A time=00:09:17.97 bitrate=N/A speed=13.7x    frame=13553 fps=328 q=-0.0 size=N/A time=00:09:25.27 bitrate=N/A speed=13.7x    frame=13734 fps=328 q=-0.0 size=N/A time=00:09:32.82 bitrate=N/A speed=13.7x    frame=13905 fps=329 q=-0.0 size=N/A time=00:09:39.95 bitrate=N/A speed=13.7x    frame=14072 fps=329 q=-0.0 size=N/A time=00:09:46.91 bitrate=N/A speed=13.7x    frame=14232 fps=328 q=-0.0 size=N/A time=00:09:53.59 bitrate=N/A speed=13.7x    frame=14409 fps=328 q=-0.0 size=N/A time=00:10:00.97 bitrate=N/A speed=13.7x    frame=14589 fps=329 q=-0.0 size=N/A time=00:10:08.48 bitrate=N/A speed=13.7x    frame=14761 fps=329 q=-0.0 size=N/A time=00:10:15.65 bitrate=N/A speed=13.7x    frame=14939 fps=329 q=-0.0 size=N/A time=00:10:23.08 bitrate=N/A speed=13.7x    frame=15100 fps=329 q=-0.0 size=N/A time=00:10:29.79 bitrate=N/A speed=13.7x    frame=15262 fps=329 q=-0.0 size=N/A time=00:10:36.55 bitrate=N/A speed=13.7x    frame=15432 fps=329 q=-0.0 size=N/A time=00:10:43.64 bitrate=N/A speed=13.7x    frame=15610 fps=329 q=-0.0 size=N/A time=00:10:51.06 bitrate=N/A speed=13.7x    frame=15776 fps=329 q=-0.0 size=N/A time=00:10:57.99 bitrate=N/A speed=13.7x    frame=15955 fps=329 q=-0.0 size=N/A time=00:11:05.45 bitrate=N/A speed=13.7x    frame=16122 fps=329 q=-0.0 size=N/A time=00:11:12.42 bitrate=N/A speed=13.7x    frame=16303 fps=329 q=-0.0 size=N/A time=00:11:19.97 bitrate=N/A speed=13.7x    frame=16477 fps=329 q=-0.0 size=N/A time=00:11:27.22 bitrate=N/A speed=13.7x    frame=16650 fps=329 q=-0.0 size=N/A time=00:11:34.44 bitrate=N/A speed=13.7x    frame=16837 fps=329 q=-0.0 size=N/A time=00:11:42.24 bitrate=N/A speed=13.7x    frame=17015 fps=330 q=-0.0 size=N/A time=00:11:49.66 bitrate=N/A speed=13.7x    frame=17192 fps=330 q=-0.0 size=N/A time=00:11:57.04 bitrate=N/A speed=13.8x    frame=17380 fps=330 q=-0.0 size=N/A time=00:12:04.89 bitrate=N/A speed=13.8x    frame=17554 fps=330 q=-0.0 size=N/A time=00:12:12.14 bitrate=N/A speed=13.8x    frame=17738 fps=330 q=-0.0 size=N/A time=00:12:19.82 bitrate=N/A speed=13.8x    frame=17910 fps=330 q=-0.0 size=N/A time=00:12:26.99 bitrate=N/A speed=13.8x    frame=18097 fps=331 q=-0.0 size=N/A time=00:12:34.79 bitrate=N/A speed=13.8x    frame=18268 fps=331 q=-0.0 size=N/A time=00:12:41.92 bitrate=N/A speed=13.8x    frame=18446 fps=331 q=-0.0 size=N/A time=00:12:49.35 bitrate=N/A speed=13.8x    frame=18622 fps=331 q=-0.0 size=N/A time=00:12:56.69 bitrate=N/A speed=13.8x    frame=18797 fps=331 q=-0.0 size=N/A time=00:13:03.99 bitrate=N/A speed=13.8x    frame=18970 fps=331 q=-0.0 size=N/A time=00:13:11.20 bitrate=N/A speed=13.8x    frame=19146 fps=331 q=-0.0 size=N/A time=00:13:18.54 bitrate=N/A speed=13.8x    frame=19345 fps=332 q=-0.0 size=N/A time=00:13:26.84 bitrate=N/A speed=13.8x    frame=19516 fps=332 q=-0.0 size=N/A time=00:13:33.97 bitrate=N/A speed=13.8x    frame=19702 fps=332 q=-0.0 size=N/A time=00:13:41.73 bitrate=N/A speed=13.8x    frame=19885 fps=332 q=-0.0 size=N/A time=00:13:49.37 bitrate=N/A speed=13.9x    frame=20070 fps=332 q=-0.0 size=N/A time=00:13:57.08 bitrate=N/A speed=13.9x    frame=20255 fps=333 q=-0.0 size=N/A time=00:14:04.80 bitrate=N/A speed=13.9x    frame=20438 fps=333 q=-0.0 size=N/A time=00:14:12.43 bitrate=N/A speed=13.9x    frame=20607 fps=333 q=-0.0 size=N/A time=00:14:19.48 bitrate=N/A speed=13.9x    frame=20784 fps=333 q=-0.0 size=N/A time=00:14:26.86 bitrate=N/A speed=13.9x    frame=20972 fps=333 q=-0.0 size=N/A time=00:14:34.70 bitrate=N/A speed=13.9x    frame=21154 fps=333 q=-0.0 size=N/A time=00:14:42.29 bitrate=N/A speed=13.9x    frame=21333 fps=333 q=-0.0 size=N/A time=00:14:49.76 bitrate=N/A speed=13.9x    frame=21520 fps=334 q=-0.0 size=N/A time=00:14:57.56 bitrate=N/A speed=13.9x    frame=21703 fps=334 q=-0.0 size=N/A time=00:15:05.19 bitrate=N/A speed=13.9x    frame=21888 fps=334 q=-0.0 size=N/A time=00:15:12.91 bitrate=N/A speed=13.9x    frame=22076 fps=334 q=-0.0 size=N/A time=00:15:20.75 bitrate=N/A speed=13.9x    frame=22264 fps=334 q=-0.0 size=N/A time=00:15:28.59 bitrate=N/A speed=13.9x    frame=22446 fps=335 q=-0.0 size=N/A time=00:15:36.18 bitrate=N/A speed=  14x    frame=22639 fps=335 q=-0.0 size=N/A time=00:15:44.23 bitrate=N/A speed=  14x    frame=22813 fps=335 q=-0.0 size=N/A time=00:15:51.49 bitrate=N/A speed=  14x    frame=22984 fps=335 q=-0.0 size=N/A time=00:15:58.62 bitrate=N/A speed=  14x    frame=23169 fps=335 q=-0.0 size=N/A time=00:16:06.34 bitrate=N/A speed=  14x    frame=23347 fps=335 q=-0.0 size=N/A time=00:16:13.76 bitrate=N/A speed=  14x    frame=23520 fps=335 q=-0.0 size=N/A time=00:16:20.98 bitrate=N/A speed=  14x    frame=23702 fps=335 q=-0.0 size=N/A time=00:16:28.57 bitrate=N/A speed=  14x    frame=23876 fps=335 q=-0.0 size=N/A time=00:16:35.82 bitrate=N/A speed=  14x    frame=24056 fps=335 q=-0.0 size=N/A time=00:16:43.33 bitrate=N/A speed=  14x    frame=24233 fps=335 q=-0.0 size=N/A time=00:16:50.71 bitrate=N/A speed=  14x    frame=24407 fps=335 q=-0.0 size=N/A time=00:16:57.97 bitrate=N/A speed=  14x    frame=24590 fps=336 q=-0.0 size=N/A time=00:17:05.60 bitrate=N/A speed=  14x    frame=24759 fps=335 q=-0.0 size=N/A time=00:17:12.65 bitrate=N/A speed=  14x    frame=24940 fps=336 q=-0.0 size=N/A time=00:17:20.20 bitrate=N/A speed=  14x    frame=25116 fps=336 q=-0.0 size=N/A time=00:17:27.54 bitrate=N/A speed=  14x    frame=25299 fps=336 q=-0.0 size=N/A time=00:17:35.17 bitrate=N/A speed=  14x    frame=25476 fps=336 q=-0.0 size=N/A time=00:17:42.56 bitrate=N/A speed=  14x    frame=25662 fps=336 q=-0.0 size=N/A time=00:17:50.31 bitrate=N/A speed=  14x    frame=25834 fps=336 q=-0.0 size=N/A time=00:17:57.49 bitrate=N/A speed=  14x    frame=26014 fps=336 q=-0.0 size=N/A time=00:18:05.00 bitrate=N/A speed=  14x    frame=26188 fps=336 q=-0.0 size=N/A time=00:18:12.25 bitrate=N/A speed=  14x    frame=26372 fps=336 q=-0.0 size=N/A time=00:18:19.93 bitrate=N/A speed=  14x    frame=26548 fps=336 q=-0.0 size=N/A time=00:18:27.27 bitrate=N/A speed=  14x    frame=26716 fps=336 q=-0.0 size=N/A time=00:18:34.27 bitrate=N/A speed=  14x    frame=26896 fps=336 q=-0.0 size=N/A time=00:18:41.78 bitrate=N/A speed=  14x    frame=27065 fps=336 q=-0.0 size=N/A time=00:18:48.83 bitrate=N/A speed=  14x    frame=27235 fps=336 q=-0.0 size=N/A time=00:18:55.92 bitrate=N/A speed=  14x    frame=27405 fps=336 q=-0.0 size=N/A time=00:19:03.01 bitrate=N/A speed=  14x    frame=27571 fps=336 q=-0.0 size=N/A time=00:19:09.94 bitrate=N/A speed=  14x    frame=27746 fps=336 q=-0.0 size=N/A time=00:19:17.23 bitrate=N/A speed=  14x    frame=27918 fps=336 q=-0.0 size=N/A time=00:19:24.41 bitrate=N/A speed=  14x    frame=28091 fps=336 q=-0.0 size=N/A time=00:19:31.62 bitrate=N/A speed=  14x    frame=28266 fps=336 q=-0.0 size=N/A time=00:19:38.92 bitrate=N/A speed=  14x    frame=28448 fps=336 q=-0.0 size=N/A time=00:19:46.51 bitrate=N/A speed=  14x    frame=28631 fps=336 q=-0.0 size=N/A time=00:19:54.15 bitrate=N/A speed=  14x    frame=28793 fps=336 q=-0.0 size=N/A time=00:20:00.90 bitrate=N/A speed=  14x    frame=28954 fps=336 q=-0.0 size=N/A time=00:20:07.62 bitrate=N/A speed=  14x    frame=29114 fps=336 q=-0.0 size=N/A time=00:20:14.29 bitrate=N/A speed=  14x    frame=29285 fps=336 q=-0.0 size=N/A time=00:20:21.42 bitrate=N/A speed=  14x    frame=29462 fps=336 q=-0.0 size=N/A time=00:20:28.81 bitrate=N/A speed=  14x    frame=29627 fps=336 q=-0.0 size=N/A time=00:20:35.69 bitrate=N/A speed=  14x    frame=29799 fps=336 q=-0.0 size=N/A time=00:20:42.86 bitrate=N/A speed=  14x    frame=29973 fps=336 q=-0.0 size=N/A time=00:20:50.12 bitrate=N/A speed=  14x    frame=30137 fps=336 q=-0.0 size=N/A time=00:20:56.96 bitrate=N/A speed=  14x    frame=30316 fps=336 q=-0.0 size=N/A time=00:21:04.42 bitrate=N/A speed=  14x    frame=30503 fps=336 q=-0.0 size=N/A time=00:21:12.22 bitrate=N/A speed=  14x    frame=30687 fps=336 q=-0.0 size=N/A time=00:21:19.90 bitrate=N/A speed=  14x    frame=30871 fps=336 q=-0.0 size=N/A time=00:21:27.57 bitrate=N/A speed=  14x    frame=31060 fps=336 q=-0.0 size=N/A time=00:21:35.46 bitrate=N/A speed=  14x    frame=31237 fps=336 q=-0.0 size=N/A time=00:21:42.84 bitrate=N/A speed=  14x    frame=31419 fps=336 q=-0.0 size=N/A time=00:21:50.43 bitrate=N/A speed=  14x    frame=31600 fps=336 q=-0.0 size=N/A time=00:21:57.98 bitrate=N/A speed=  14x    frame=31776 fps=336 q=-0.0 size=N/A time=00:22:05.32 bitrate=N/A speed=  14x    frame=31949 fps=336 q=-0.0 size=N/A time=00:22:12.53 bitrate=N/A speed=  14x    frame=32126 fps=337 q=-0.0 size=N/A time=00:22:19.92 bitrate=N/A speed=  14x    frame=32310 fps=337 q=-0.0 size=N/A time=00:22:27.59 bitrate=N/A speed=  14x    frame=32491 fps=337 q=-0.0 size=N/A time=00:22:35.14 bitrate=N/A speed=  14x    frame=32655 fps=337 q=-0.0 size=N/A time=00:22:41.98 bitrate=N/A speed=  14x    frame=32808 fps=336 q=-0.0 size=N/A time=00:22:48.36 bitrate=N/A speed=  14x    frame=32973 fps=336 q=-0.0 size=N/A time=00:22:55.24 bitrate=N/A speed=  14x    frame=33148 fps=336 q=-0.0 size=N/A time=00:23:02.54 bitrate=N/A speed=  14x    frame=33318 fps=336 q=-0.0 size=N/A time=00:23:09.63 bitrate=N/A speed=  14x    frame=33482 fps=336 q=-0.0 size=N/A time=00:23:16.47 bitrate=N/A speed=  14x    frame=33638 fps=336 q=-0.0 size=N/A time=00:23:22.98 bitrate=N/A speed=  14x    frame=33763 fps=336 q=-0.0 size=N/A time=00:23:28.19 bitrate=N/A speed=  14x    frame=33888 fps=335 q=-0.0 size=N/A time=00:23:33.41 bitrate=N/A speed=  14x    frame=34045 fps=335 q=-0.0 size=N/A time=00:23:39.96 bitrate=N/A speed=  14x    frame=34198 fps=335 q=-0.0 size=N/A time=00:23:46.34 bitrate=N/A speed=  14x    frame=34340 fps=334 q=-0.0 size=N/A time=00:23:52.26 bitrate=N/A speed=13.9x    frame=34470 fps=334 q=-0.0 size=N/A time=00:23:57.68 bitrate=N/A speed=13.9x    frame=34647 fps=334 q=-0.0 size=N/A time=00:24:05.06 bitrate=N/A speed=13.9x    [Parsed_ssim_16 @ 0000020fd10b7800] SSIM Y:0.994797 (22.837232) U:0.994787 (22.829083) V:0.994479 (22.579591) All:0.994742 (22.791871)
[out#0/null @ 0000020fc9cadec0] video:14903KiB audio:271276KiB subtitle:0KiB other streams:0KiB global headers:0KiB muxing overhead: unknown
frame=34683 fps=334 q=-0.0 Lsize=N/A time=00:24:06.57 bitrate=N/A speed=13.9x    
